REM DIRINDEX 1\2,1\3,1\4
REM DIRNAME cjc151,folder01,folder02,folder03
TITLE ""
FILE "170 170_TOEFL_3900.mp3" MP3
  TRACK 01 AUDIO
    TITLE "2:cjc151_7411"
    INDEX 01 00:00:00
  TRACK 02 AUDIO
    TITLE "0:"
    INDEX 01 00:01:73
  TRACK 03 AUDIO
    TITLE "3:cjc151_7412"
    INDEX 01 00:03:53
  TRACK 04 AUDIO
    TITLE "0:"
    INDEX 01 00:06:43
  TRACK 05 AUDIO
    TITLE "2:cjc151_7413"
    INDEX 01 00:08:23
  TRACK 06 AUDIO
    TITLE "0:"
    INDEX 01 00:09:55
  TRACK 07 AUDIO
    TITLE "3:cjc151_7414"
    INDEX 01 00:11:33
  TRACK 08 AUDIO
    TITLE "0:"
    INDEX 01 00:14:62
  TRACK 09 AUDIO
    TITLE "2:cjc151_7415"
    INDEX 01 00:16:44
  TRACK 10 AUDIO
    TITLE "0:"
    INDEX 01 00:18:37
  TRACK 11 AUDIO
    TITLE "3:cjc151_7416"
    INDEX 01 00:20:16
  TRACK 12 AUDIO
    TITLE "0:"
    INDEX 01 00:23:18
  TRACK 13 AUDIO
    TITLE "2:cjc151_7417"
    INDEX 01 00:24:72
  TRACK 14 AUDIO
    TITLE "0:"
    INDEX 01 00:26:18
  TRACK 15 AUDIO
    TITLE "3:cjc151_7418"
    INDEX 01 00:27:73
  TRACK 16 AUDIO
    TITLE "0:"
    INDEX 01 00:31:08
  TRACK 17 AUDIO
    TITLE "2:cjc151_7419"
    INDEX 01 00:32:60
  TRACK 18 AUDIO
    TITLE "0:"
    INDEX 01 00:34:04
  TRACK 19 AUDIO
    TITLE "3:cjc151_7420"
    INDEX 01 00:35:59
  TRACK 20 AUDIO
    TITLE "0:"
    INDEX 01 00:40:17
  TRACK 21 AUDIO
    TITLE "2:cjc151_7421"
    INDEX 01 00:41:71
  TRACK 22 AUDIO
    TITLE "0:"
    INDEX 01 00:43:15
  TRACK 23 AUDIO
    TITLE "3:cjc151_7422"
    INDEX 01 00:44:71
  TRACK 24 AUDIO
    TITLE "0:"
    INDEX 01 00:49:02
  TRACK 25 AUDIO
    TITLE "2:cjc151_7423"
    INDEX 01 00:50:54
  TRACK 26 AUDIO
    TITLE "0:"
    INDEX 01 00:52:00
  TRACK 27 AUDIO
    TITLE "3:cjc151_7424"
    INDEX 01 00:53:53
  TRACK 28 AUDIO
    TITLE "0:"
    INDEX 01 00:57:37
  TRACK 29 AUDIO
    TITLE "2:cjc151_7425"
    INDEX 01 00:59:16
  TRACK 30 AUDIO
    TITLE "0:"
    INDEX 01 01:00:51
  TRACK 31 AUDIO
    TITLE "3:cjc151_7426"
    INDEX 01 01:02:30
  TRACK 32 AUDIO
    TITLE "0:"
    INDEX 01 01:06:43
  TRACK 33 AUDIO
    TITLE "2:cjc151_7427"
    INDEX 01 01:08:23
  TRACK 34 AUDIO
    TITLE "0:"
    INDEX 01 01:10:22
  TRACK 35 AUDIO
    TITLE "3:cjc151_7428"
    INDEX 01 01:11:70
  TRACK 36 AUDIO
    TITLE "0:"
    INDEX 01 01:17:10
  TRACK 37 AUDIO
    TITLE "2:cjc151_7429"
    INDEX 01 01:18:62
  TRACK 38 AUDIO
    TITLE "0:"
    INDEX 01 01:20:16
  TRACK 39 AUDIO
    TITLE "3:cjc151_7430"
    INDEX 01 01:21:69
  TRACK 40 AUDIO
    TITLE "0:"
    INDEX 01 01:26:40
  TRACK 41 AUDIO
    TITLE "2:cjc151_7431"
    INDEX 01 01:28:18
  TRACK 42 AUDIO
    TITLE "0:"
    INDEX 01 01:30:46
  TRACK 43 AUDIO
    TITLE "3:cjc151_7432"
    INDEX 01 01:32:37
  TRACK 44 AUDIO
    TITLE "0:"
    INDEX 01 01:37:01
  TRACK 45 AUDIO
    TITLE "2:cjc151_7433"
    INDEX 01 01:38:55
  TRACK 46 AUDIO
    TITLE "0:"
    INDEX 01 01:39:70
  TRACK 47 AUDIO
    TITLE "3:cjc151_7434"
    INDEX 01 01:41:46
  TRACK 48 AUDIO
    TITLE "0:"
    INDEX 01 01:46:00
  TRACK 49 AUDIO
    TITLE "2:cjc151_7435"
    INDEX 01 01:47:52
  TRACK 50 AUDIO
    TITLE "0:"
    INDEX 01 01:48:58
  TRACK 51 AUDIO
    TITLE "3:cjc151_7436"
    INDEX 01 01:50:54
  TRACK 52 AUDIO
    TITLE "0:"
    INDEX 01 01:54:50
  TRACK 53 AUDIO
    TITLE "2:cjc151_7437"
    INDEX 01 01:56:28
  TRACK 54 AUDIO
    TITLE "0:"
    INDEX 01 01:57:57
  TRACK 55 AUDIO
    TITLE "3:cjc151_7438"
    INDEX 01 01:59:42
  TRACK 56 AUDIO
    TITLE "0:"
    INDEX 01 02:04:15
  TRACK 57 AUDIO
    TITLE "2:cjc151_7439"
    INDEX 01 02:05:70
  TRACK 58 AUDIO
    TITLE "0:"
    INDEX 01 02:07:18
  TRACK 59 AUDIO
    TITLE "3:cjc151_7440"
    INDEX 01 02:08:72
  TRACK 60 AUDIO
    TITLE "0:"
    INDEX 01 02:13:01
  TRACK 61 AUDIO
    TITLE "2:cjc151_7441"
    INDEX 01 02:14:61
  TRACK 62 AUDIO
    TITLE "0:"
    INDEX 01 02:16:64
  TRACK 63 AUDIO
    TITLE "3:cjc151_7442"
    INDEX 01 02:18:39
  TRACK 64 AUDIO
    TITLE "0:"
    INDEX 01 02:23:11
  TRACK 65 AUDIO
    TITLE "2:cjc151_7443"
    INDEX 01 02:24:65
  TRACK 66 AUDIO
    TITLE "0:"
    INDEX 01 02:26:68
  TRACK 67 AUDIO
    TITLE "3:cjc151_7444"
    INDEX 01 02:28:45
  TRACK 68 AUDIO
    TITLE "0:"
    INDEX 01 02:33:39
  TRACK 69 AUDIO
    TITLE "2:cjc151_7445"
    INDEX 01 02:35:18
  TRACK 70 AUDIO
    TITLE "0:"
    INDEX 01 02:36:29
  TRACK 71 AUDIO
    TITLE "3:cjc151_7446"
    INDEX 01 02:38:20
  TRACK 72 AUDIO
    TITLE "0:"
    INDEX 01 02:42:45
  TRACK 73 AUDIO
    TITLE "2:cjc151_7447"
    INDEX 01 02:44:25
  TRACK 74 AUDIO
    TITLE "0:"
    INDEX 01 02:45:30
  TRACK 75 AUDIO
    TITLE "3:cjc151_7448"
    INDEX 01 02:47:19
  TRACK 76 AUDIO
    TITLE "0:"
    INDEX 01 02:51:48
  TRACK 77 AUDIO
    TITLE "2:cjc151_7449"
    INDEX 01 02:53:30
  TRACK 78 AUDIO
    TITLE "0:"
    INDEX 01 02:54:56
  TRACK 79 AUDIO
    TITLE "3:cjc151_7450"
    INDEX 01 02:56:34
  TRACK 80 AUDIO
    TITLE "0:"
    INDEX 01 03:02:15
  TRACK 81 AUDIO
    TITLE "2:cjc151_7451"
    INDEX 01 03:03:69
  TRACK 82 AUDIO
    TITLE "0:"
    INDEX 01 03:06:07
  TRACK 83 AUDIO
    TITLE "3:cjc151_7452"
    INDEX 01 03:07:71
  TRACK 84 AUDIO
    TITLE "0:"
    INDEX 01 03:13:05
  TRACK 85 AUDIO
    TITLE "2:cjc151_7453"
    INDEX 01 03:14:63
  TRACK 86 AUDIO
    TITLE "0:"
    INDEX 01 03:16:11
  TRACK 87 AUDIO
    TITLE "3:cjc151_7454"
    INDEX 01 03:17:65
  TRACK 88 AUDIO
    TITLE "0:"
    INDEX 01 03:22:72
